<svg xmlns="http://www.w3.org/2000/svg" xmlns:xlink="http://www.w3.org/1999/xlink" fill="none" version="1.1" width="200" height="200" viewBox="0 0 200 200"><defs><clipPath id="master_svg0_113_5105"><rect x="0" y="0" width="200" height="200" rx="0"/></clipPath></defs><g clip-path="url(#master_svg0_113_5105)"><g><path d="M181.25,37.5L18.75,37.5C11.846440300000001,37.5,6.25,43.0964394,6.25,50L6.25,150C6.25,156.90356,11.846440300000001,162.5,18.75,162.5L181.25,162.5C188.15356,162.5,193.75,156.90356,193.75,150L193.75,50C193.75,43.0964394,188.15356,37.5,181.25,37.5ZM100,118.75C100,122.201782,97.201782,125,93.75,125C90.298218,125,87.5,122.201782,87.5,118.75L87.5,96.335938L73.171875,110.671875C70.730537,113.115936,66.769463,113.115936,64.328125,110.671875L50,96.335938L50,118.75C50,122.201782,47.201778,125,43.75,125C40.298222,125,37.5,122.201782,37.5,118.75L37.5,81.25C37.498008999999996,78.72058100000001,39.020798,76.43933899999999,41.357563,75.4711C43.694328,74.502869,46.384304,75.03855899999999,48.171875,76.828125L68.75,97.414062L89.328125,76.828125C91.115692,75.03855899999999,93.805664,74.502861,96.142433,75.4711C98.479202,76.43933899999999,100.001991,78.72058100000001,100,81.25L100,118.75ZM160.67188,104.421875L141.92188,123.171875C139.48053,125.615929,135.51945,125.615929,133.07812,123.171875L114.32812,104.421875C111.88599,101.979729,111.88599,98.02024800000001,114.32812,95.57811000000001C116.77026,93.13597899999999,120.72974,93.135986,123.17188,95.578125L131.25,103.664062L131.25,81.25C131.25,77.79821799999999,134.04822000000001,75,137.5,75C140.95178,75,143.75,77.79821799999999,143.75,81.25L143.75,103.664062L151.82812,95.578125C154.27026,93.135986,158.22974,93.135986,160.67186,95.57811699999999C163.114,98.020256,163.11401,101.979744,160.67188,104.421875Z" fill="#000000" fill-opacity="1" style="mix-blend-mode:passthrough"/><path d="" fill="#000000" fill-opacity="1" style="mix-blend-mode:passthrough"/></g></g></svg>